# xmcd
#
# Track frame offsets:
#  150
#  18410
#  28445
#  44218
#  58120
#  71833
#  89128
#  111753
#  125055
#  146045
#  162320
#  175763
#  188600
#  196853
#  219455
#  235312
#  242955
#
# Disc length: 3486 seconds
#
# Revision: 0
# Processed by: cddbd v1.4PL0 Copyright (c) Steve Scherf et al.
# Submitted via: AltoMP3_Maker 3.0
#
DISCID=0c0d9c11
DTITLE=Mississippi John Hurt - -
DYEAR=1900
DGENRE=
TTITLE0=Let the mermaids flirt with me
TTITLE1=Corrinna, Corrinna
TTITLE2=Oh Mary don't you weep
TTITLE3=Avalon Blues
TTITLE4=Sliding Delta
TTITLE5=Coffee Blues
TTITLE6=Monday Morning Blues
TTITLE7=Candyman
TTITLE8=Trouble I've had all my days
TTITLE9=See See Rider
TTITLE10=Stack O'Lee Blues
TTITLE11=Big Leg Blues
TTITLE12=Shake that thing
TTITLE13=Casey Jones
TTITLE14=Joe Turner Blues
TTITLE15=Stocktime
TTITLE16=Richlands Women Blues
EXTD=
EXTT0=
EXTT1=
EXTT2=
EXTT3=
EXTT4=
EXTT5=
EXTT6=
EXTT7=
EXTT8=
EXTT9=
EXTT10=
EXTT11=
EXTT12=
EXTT13=
EXTT14=
EXTT15=
EXTT16=
PLAYORDER=
